<?xml version="1.0" standalone="no"?><!DOCTYPE svg PUBLIC "-//W3C//DTD SVG 1.1//EN" "http://www.w3.org/Graphics/SVG/1.1/DTD/svg11.dtd"><svg t="1602809264997" class="icon" viewBox="0 0 1024 1024" version="1.1" xmlns="http://www.w3.org/2000/svg" p-id="3255" xmlns:xlink="http://www.w3.org/1999/xlink" width="200" height="200"><defs><style type="text/css"></style></defs><path d="M512 64c211.776 0 384 174.272 384 388.48a379.264 379.264 0 0 1-101.44 259.584l-219.456 280.64a79.872 79.872 0 0 1-126.208 0.512l-223.872-283.2A388.224 388.224 0 0 1 128 452.48C128 238.272 300.224 64 512 64z m195.456 375.04c0-107.904-87.296-195.776-194.56-195.776-51.776 0-100.544 20.544-137.152 57.728a196.48 196.48 0 0 0-56.832 139.072c0.384 107.904 87.68 195.84 194.496 195.84a189.44 189.44 0 0 0 137.152-57.728c36.672-37.12 56.896-86.592 56.896-139.072z m-82.56 0c0 30.336-11.52 58.624-32.448 79.872a110.08 110.08 0 0 1-79.04 33.344c-61.824 0-112-50.56-112-112.64 0-30.272 11.52-58.624 32.384-79.808 21.76-21.504 49.92-33.344 79.616-33.344 29.888 0 57.92 11.648 79.04 33.024 21.12 21.312 32.768 49.6 32.512 79.616z" p-id="3256" fill="#1296db"></path></svg>