<?xml version="1.0" standalone="no"?><!DOCTYPE svg PUBLIC "-//W3C//DTD SVG 1.1//EN" "http://www.w3.org/Graphics/SVG/1.1/DTD/svg11.dtd"><svg t="1602838178702" class="icon" viewBox="0 0 1024 1024" version="1.1" xmlns="http://www.w3.org/2000/svg" p-id="2310" xmlns:xlink="http://www.w3.org/1999/xlink" width="200" height="200"><defs><style type="text/css"></style></defs><path d="M434.517333 0c-11.797333 0-21.354667 9.557333-21.333333 21.354667l0 309.866667c0 66.368-48.704 121.429333-112.213333 131.690667L300.970667 21.354667c0-11.797333-9.6-21.354667-21.376-21.354667-11.776 0-21.376 9.557333-21.376 21.354667l0 441.557333c-63.488-10.282667-112.170667-65.344-112.170667-131.690667L146.048 21.354667C146.048 9.557333 136.490667 0 124.693333 0 112.874667 0 103.317333 9.557333 103.296 21.354667l0 309.888c0 89.962667 67.754667 164.288 154.922667 174.869333l0 496.512c0 11.818667 9.578667 21.376 21.376 21.376 11.797333 0 21.376-9.557333 21.376-21.376L300.970667 506.112c87.146667-10.602667 154.922667-84.906667 154.922667-174.890667L455.893333 21.354667C455.893333 9.557333 446.336 0 434.517333 0z" p-id="2311" fill="#1296db"></path><path d="M705.664 0c-11.797333 0-21.354667 9.557333-21.354667 21.354667l0 981.269333c0 11.818667 9.557333 21.376 21.354667 21.376 11.818667 0 21.376-9.557333 21.376-21.376L727.04 559.210667l172.288 0c11.84 0 21.354667-9.536 21.354667-21.376C920.682667 236.245333 826.24 0 705.664 0zM727.04 516.458667 727.04 46.677333c87.04 32.277333 146.944 258.304 150.741333 469.781333L727.04 516.458667z" p-id="2312" fill="#1296db"></path></svg>