<?xml version="1.0" standalone="no"?><!DOCTYPE svg PUBLIC "-//W3C//DTD SVG 1.1//EN" "http://www.w3.org/Graphics/SVG/1.1/DTD/svg11.dtd"><svg t="1602809288494" class="icon" viewBox="0 0 1024 1024" version="1.1" xmlns="http://www.w3.org/2000/svg" p-id="4153" xmlns:xlink="http://www.w3.org/1999/xlink" width="200" height="200"><defs><style type="text/css"></style></defs><path d="M688 560c-124.8 0-224 99.2-224 224s99.2 224 224 224 224-99.2 224-224-99.2-224-224-224z m80 272h-96c-19.2 0-32-12.8-32-32v-64c0-19.2 12.8-32 32-32s32 12.8 32 32v32h64c19.2 0 32 12.8 32 32s-12.8 32-32 32z" p-id="4154" fill="#1296db"></path><path d="M416 784c0-150.4 121.6-272 272-272 73.6 0 144 28.8 192 80V192c0-89.6-70.4-160-160-160H208c-54.4 0-96 41.6-96 96v768c0 54.4 41.6 96 96 96l300.8-3.2C451.2 940.8 416 867.2 416 784zM284.8 224H464c16 0 28.8 12.8 28.8 32S480 288 464 288H284.8c-16 0-28.8-12.8-28.8-32s12.8-32 28.8-32zM256 448c0-19.2 12.8-32 32-32h368c19.2 0 32 12.8 32 32s-12.8 32-32 32H288c-19.2 0-32-12.8-32-32z" p-id="4155" fill="#1296db"></path></svg>