<?xml version="1.0" standalone="no"?><!DOCTYPE svg PUBLIC "-//W3C//DTD SVG 1.1//EN" "http://www.w3.org/Graphics/SVG/1.1/DTD/svg11.dtd"><svg t="1602809223505" class="icon" viewBox="0 0 1024 1024" version="1.1" xmlns="http://www.w3.org/2000/svg" p-id="2365" xmlns:xlink="http://www.w3.org/1999/xlink" width="200" height="200"><defs><style type="text/css"></style></defs><path d="M918.84347 765.702891h-255.234298c-14.293121 0-25.52343-11.230309-25.523429-25.523429s11.230309-25.52343 25.523429-25.52343h255.234298c13.782652 0 25.52343-8.677966 25.523429-19.397807V70.444666c0-10.71984-11.740778-19.397807-25.523429-19.397807H408.374875c-13.782652 0-25.52343 8.677966-25.523429 19.397807v169.986042c0 14.293121-11.230309 25.52343-25.52343 25.52343s-25.52343-11.230309-25.52343-25.52343V70.444666C331.804586 31.649053 366.005982 0 408.374875 0h510.468595c42.368893 0 76.570289 31.649053 76.570289 70.444666v625.324028c0 38.285145-34.201396 69.934197-76.570289 69.934197z" p-id="2366" fill="#1296db"></path><path d="M852.993021 255.234297H485.966102c-14.293121 0-25.52343-11.230309-25.52343-25.52343s11.230309-25.52343 25.52343-25.523429h367.026919c14.293121 0 25.52343 11.230309 25.52343 25.523429s-11.230309 25.52343-25.52343 25.52343z" p-id="2367" fill="#1296db"></path><path d="M852.993021 408.374875H587.038883c-14.293121 0-25.52343-11.230309-25.523429-25.523429s11.230309-25.52343 25.523429-25.52343h265.954138c14.293121 0 25.52343 11.230309 25.52343 25.52343s-11.230309 25.52343-25.52343 25.523429z" p-id="2368" fill="#1296db"></path><path d="M852.993021 561.515454h-183.258225c-14.293121 0-25.52343-11.230309-25.52343-25.52343s11.230309-25.52343 25.52343-25.52343h183.258225c14.293121 0 25.52343 11.230309 25.52343 25.52343s-11.230309 25.52343-25.52343 25.52343z" p-id="2369" fill="#1296db"></path><path d="M331.804586 740.179462c-112.813559 0-204.187438-91.373878-204.187437-204.187438s91.373878-204.187438 204.187437-204.187438 204.187438 91.373878 204.187438 204.187438-91.373878 204.187438-204.187438 204.187438z m0-357.328016c-84.227318 0-153.140578 68.91326-153.140578 153.140578s68.91326 153.140578 153.140578 153.140578 153.140578-68.91326 153.140579-153.140578-68.91326-153.140578-153.140579-153.140578z" p-id="2370" fill="#1296db"></path><path d="M638.085743 1024l-27.565304-3.062812c-23.481555-1.020937-477.798604-1.020937-558.963111 0l-26.033898 0.510469v-26.033898c0-168.965105 137.316052-306.281157 306.281156-306.281157s306.281157 137.316052 306.281157 306.281157v28.586241z m-306.281157-283.820538c-132.211366 0-240.941176 100.562313-254.21336 229.710867 100.051844-0.510469 409.906281-1.020937 507.916252 0a254.928016 254.928016 0 0 0-253.702892-229.710867z" p-id="2371" fill="#1296db"></path></svg>