<?xml version="1.0" standalone="no"?><!DOCTYPE svg PUBLIC "-//W3C//DTD SVG 1.1//EN" "http://www.w3.org/Graphics/SVG/1.1/DTD/svg11.dtd"><svg t="1604894252679" class="icon" viewBox="0 0 1034 1024" version="1.1" xmlns="http://www.w3.org/2000/svg" p-id="7872" xmlns:xlink="http://www.w3.org/1999/xlink" width="201.953125" height="200"><defs><style type="text/css"></style></defs><path d="M338.944 790.528q19.456 0 36.864 7.168t30.208 19.968 20.48 30.208 7.68 36.864-7.68 36.864-20.48 30.208-30.208 20.48-36.864 7.68q-20.48 0-37.888-7.68t-30.208-20.48-20.48-30.208-7.68-36.864 7.68-36.864 20.48-30.208 30.208-19.968 37.888-7.168z m425.984 2.048q19.456 0 37.376 7.168t30.72 19.968 20.48 30.208 7.68 36.864-7.68 36.864-20.48 30.208-30.72 20.48-37.376 7.68-36.864-7.68-30.208-20.48-20.48-30.208-7.68-36.864 7.68-36.864 20.48-30.208 30.208-19.968 36.864-7.168z m172.032-581.632q28.672 0 44.544 7.68t22.528 18.944 6.144 24.064-3.584 22.016-13.312 37.888-22.016 62.976-23.552 68.096-18.944 53.248q-13.312 40.96-33.28 56.832T845.824 578.56h-537.6l14.336 92.16h517.12q49.152 0 49.152 41.984 0 20.48-9.728 35.84t-38.4 14.336H304.128q-20.48 0-34.304-9.216T246.784 729.6t-14.848-32.256-8.704-32.768q-1.024-6.144-5.632-29.696T206.336 576t-14.848-78.848T175.104 409.6q-19.456-103.424-44.032-230.4h-76.8q-15.36 0-25.6-7.68T11.776 153.088t-9.216-23.04-2.56-22.528q0-20.48 13.824-33.792T51.2 61.44H154.624q20.48 0 32.768 6.144t19.456 15.36 10.24 18.944 5.12 16.896q2.048 8.192 4.096 23.04t4.096 30.208q3.072 18.432 6.144 38.912h700.416z m-37.888 91.136l-641.024-2.048 35.84 185.344 535.552 1.024z" p-id="7873" fill="#1296db"></path></svg>